<svg width="25" height="25" viewBox="0 0 25 25" fill="none" xmlns="http://www.w3.org/2000/svg">
<g clip-path="url(#clip0_2292_15)">
<path d="M2.43396 1.19238H22.2621C23.276 1.19238 24.098 2.01436 24.098 3.02832V22.8564C24.098 23.8704 23.276 24.6924 22.2621 24.6924H2.43396C1.42 24.6924 0.598022 23.8704 0.598022 22.8564V3.02832C0.598022 2.01436 1.42 1.19238 2.43396 1.19238Z" fill="#3178C6"/>
<path d="M14.4151 19.5953V22.1308C14.8274 22.3421 15.3152 22.5005 15.8782 22.6062C16.4411 22.7118 17.0345 22.7646 17.6584 22.7646C18.2662 22.7646 18.8438 22.7065 19.3909 22.5903C19.9381 22.4741 20.4179 22.2826 20.8301 22.0159C21.2425 21.7492 21.5689 21.4005 21.8095 20.97C22.05 20.5396 22.1703 20.0074 22.1703 19.3736C22.1703 18.914 22.1015 18.5112 21.9641 18.1652C21.8267 17.8193 21.6284 17.5116 21.3693 17.2422C21.1104 16.9728 20.7998 16.7312 20.4377 16.5172C20.0756 16.3033 19.6672 16.1013 19.2125 15.9112C18.8795 15.7737 18.5808 15.6405 18.3165 15.511C18.0522 15.3816 17.8275 15.2496 17.6425 15.1148C17.4574 14.9802 17.3147 14.8375 17.2143 14.687C17.1138 14.5364 17.0636 14.3661 17.0636 14.1759C17.0636 14.0016 17.1085 13.8445 17.1984 13.7046C17.2882 13.5646 17.4152 13.4444 17.5791 13.3441C17.7429 13.2436 17.9438 13.1658 18.1817 13.1103C18.4195 13.0548 18.6839 13.0271 18.9746 13.0271C19.1861 13.0271 19.4095 13.043 19.6447 13.0746C19.8799 13.1063 20.1165 13.1551 20.3544 13.2212C20.5923 13.2872 20.8235 13.3704 21.0482 13.4708C21.2729 13.5712 21.4804 13.6874 21.6707 13.8194V11.4504C21.2848 11.3025 20.8632 11.1929 20.4059 11.1216C19.9487 11.0502 19.424 11.0146 18.8319 11.0146C18.2293 11.0146 17.6584 11.0793 17.1192 11.2088C16.5799 11.3381 16.1054 11.5402 15.6958 11.8148C15.2861 12.0896 14.9623 12.4395 14.7244 12.8647C14.4865 13.2899 14.3675 13.7983 14.3675 14.3899C14.3675 15.1452 14.5856 15.7896 15.0218 16.3231C15.4579 16.8566 16.1199 17.3082 17.0081 17.678C17.357 17.8206 17.6821 17.9605 17.9834 18.0979C18.2848 18.2353 18.5451 18.3778 18.7645 18.5257C18.9839 18.6736 19.157 18.8347 19.2839 19.009C19.4108 19.1834 19.4742 19.3815 19.4742 19.6033C19.4742 19.767 19.4345 19.9189 19.3552 20.0589C19.276 20.1988 19.1557 20.3204 18.9945 20.4233C18.8333 20.5263 18.6323 20.6069 18.3918 20.665C18.1513 20.7231 17.8698 20.7522 17.5473 20.7522C16.9975 20.7522 16.4531 20.6558 15.9139 20.4629C15.3746 20.2701 14.875 19.981 14.4151 19.5953ZM10.1891 13.2859H13.4496V11.1982H4.36169V13.2859H7.60622V22.581H10.1891V13.2859Z" fill="white"/>
</g>
<defs>
<clipPath id="clip0_2292_15">
<rect width="24" height="24" fill="white" transform="translate(0.348022 0.942383)"/>
</clipPath>
</defs>
</svg>
